<svg xmlns="http://www.w3.org/2000/svg" width="101" height="30" viewBox="0 0 101 30">
  <path fill-rule="evenodd" d="M0,5.70797081 L5.42025381,5.70797081 L10.7228148,25.0556702 L16.2606338,5.70797081 L21.5380478,5.70797081 L15.3575134,29.4775894 L6.13355931,29.4775894 L0,5.70797081 Z M43.7664241,24.961986 L45.1288274,24.8740454 L45.1288274,29.5751026 C43.9017326,30.0666255 43.00308,30.0354826 42.0187746,29.9058053 C40.6253525,29.7226489 39.5709674,29.3438278 38.832132,28.9934693 C38.8297067,28.9924483 38.8271537,28.9912995 38.8247284,28.9900232 C38.5843643,28.876045 38.3673601,28.7646195 38.1968204,28.6642983 C38.1661845,28.6464294 38.1373357,28.626646 38.1073381,28.6081389 C37.7598761,28.3961369 37.5726142,28.2415708 37.5726142,28.2415708 C35.0368566,29.4137718 32.4855257,29.9998724 29.9178556,29.9998724 C25.1946958,29.9998724 22.8336904,27.4802272 22.8336904,22.4418303 C22.8336904,20.0336106 23.4757674,18.2903699 24.759411,17.2119807 C26.0431822,16.1349954 28.0166437,15.4850773 30.6787744,15.2633751 L36.8123337,14.7399434 L36.8123337,13.0291221 C36.8123337,11.7617052 36.5343131,10.8738752 35.9799312,10.3665256 C35.4250388,9.85943117 34.6084648,9.60530962 33.5313582,9.60530962 C31.5028797,9.60530962 28.9672497,9.73281712 25.9242128,9.98591759 L24.2126881,10.081261 L24.2126881,6.42043013 C27.6671393,5.59654534 30.8452294,5.1844115 33.7455541,5.1844115 C36.6457511,5.1844115 38.7379267,5.81122764 40.0213149,7.06230722 C41.3049585,8.31466315 41.9469079,10.3028356 41.9469079,13.0291221 L41.9469079,23.0634134 C41.9573752,23.2851156 41.9702678,23.4792487 41.9873728,23.6223276 C42.0312842,23.989151 42.1917397,24.3032611 42.4706539,24.5661895 C42.7482916,24.8298836 43.1802575,24.961986 43.7664241,24.961986 Z M36.8123337,24.7236912 L35.9561884,25.009211 C34.1808389,25.5163054 32.5012266,25.7695335 30.9167131,25.7695335 C28.9829506,25.7695335 28.0166437,24.6760833 28.0166437,22.4894382 C28.0166437,20.301772 29.1100895,19.1132336 31.296981,18.9240784 L36.8123337,18.4003914 L36.8123337,24.7236912 Z M47.7202403,29.4775894 L47.7202403,0 L52.9029383,0 L52.9029383,29.4775894 L47.7202403,29.4775894 Z M56.7006391,29.4775894 L56.7006391,7.77668106 L61.8829542,7.77668106 L61.8829542,29.4775894 L56.7006391,29.4775894 Z M56.7006391,5.18453913 L56.7006391,0 L61.8829542,0 L61.8829542,5.18453913 L56.7006391,5.18453913 Z M68.1292281,8.27522389 C69.7613548,6.2150652 72.4792683,5.18453913 76.2829686,5.18453913 C80.086286,5.18453913 82.8041995,6.2150652 84.4368369,8.27522389 C86.0689636,10.3353826 86.8854099,13.4249186 86.8854099,17.545236 C86.8854099,21.6654258 86.0927064,24.7712991 84.508193,26.8627284 C82.9226583,28.9542853 80.1815126,30 76.2829686,30 C72.3840418,30 69.6422578,28.9542853 68.057872,26.8627284 C66.4722097,24.7712991 65.680655,21.6654258 65.680655,17.545236 C65.680655,13.4249186 66.4960801,10.3353826 68.1292281,8.27522389 Z M72.0039015,23.7255845 C71.2742569,22.4581676 70.9104558,20.3817992 70.9104558,17.4976281 C70.9104558,14.613457 71.2981273,12.569508 72.0752576,11.3647599 C72.851239,10.1612883 74.2539796,9.55885043 76.2829686,9.55885043 C78.3108089,9.55885043 79.7136771,10.1612883 80.4908073,11.3647599 C81.2667888,12.569508 81.6556092,14.613457 81.6556092,17.4976281 C81.6556092,20.3817992 81.2905316,22.4581676 80.5621634,23.7255845 C79.8326464,24.9930013 78.4060354,25.6267098 76.2829686,25.6267098 C74.1588807,25.6267098 72.7327803,24.9930013 72.0039015,23.7255845 Z M90.6831107,5.70797081 L90.6831107,0 L95.8178125,0 L95.8178125,5.18453913 L101,5.18453913 L101,10.3689506 L95.8178125,10.3689506 L95.8178125,20.5871642 C95.8178125,22.5208364 95.9606524,23.804463 96.2460767,24.4381714 C96.531118,25.0731562 97.2599968,25.3887979 98.4329682,25.3887979 L101,25.3861176 L101,29.3825012 C98.875912,29.7933587 98.5227058,30 97.4136868,30 C94.7188778,30 93.1794247,29.3825012 92.1805672,28.1464826 C91.1822203,26.9103363 90.6831107,24.5809951 90.6831107,21.1583314 L90.6831107,10.1287413 L90.6831107,5.70797081 Z"/>
</svg>
