<svg width="20" height="20" viewBox="0 0 20 20" xmlns="http://www.w3.org/2000/svg" xmlns: xlink="http://www.w3.org/1999/xlink"><title>icon-settings</title><defs><path d="M18.396 8.16l-2.162-.487a6.844 6.844 0 0 0-.178-.436l1.183-1.873a.809.809 0 0 0-.107-.959l-1.536-1.537a.814.814 0 0 0-.96-.106l-1.871 1.183a7.2 7.2 0 0 0-.436-.18l-.488-2.162A.812.812 0 0 0 11.087 1H8.914a.81.81 0 0 0-.754.603l-.487 2.162a7.19 7.19 0 0 0-.436.18L5.366 2.76a.813.813 0 0 0-.961.108L2.868 4.405a.81.81 0 0 0-.106.959l1.184 1.872a6.312 6.312 0 0 0-.179.435l-2.164.487A.812.812 0 0 0 1 8.913v2.172c0 .34.272.68.603.754l2.164.489c.055.146.114.291.178.433L2.76 14.634a.811.811 0 0 0 .108.961l1.535 1.536a.81.81 0 0 0 .96.106l1.874-1.183c.142.065.287.122.434.177l.487 2.165a.815.815 0 0 0 .755.604h2.172c.341 0 .68-.273.754-.604l.489-2.163c.146-.055.292-.113.434-.179l1.872 1.186c.288.181.72.132.962-.108l1.535-1.537a.809.809 0 0 0 .106-.96l-1.182-1.872c.065-.142.124-.288.178-.434l2.163-.487a.814.814 0 0 0 .604-.756V8.914a.813.813 0 0 0-.604-.754zM10 12.206a2.207 2.207 0 1 1 0-4.414 2.207 2.207 0 0 1 0 4.414z" id="icon-settings" /></defs><use fill-rule="nonzero" xlink: href="#icon-settings"/></svg>