<svg width="20" height="20" viewBox="0 0 20 20" xmlns="http://www.w3.org/2000/svg" xmlns: xlink="http://www.w3.org/1999/xlink"><title>icon-notifications</title><defs><path d="M2.969 15.714H17.03c-1.936-2.254-2.877-5.312-2.877-9.285 0-1.44-1.32-3.572-4.154-3.572-2.834 0-4.154 2.132-4.154 3.572 0 3.973-.941 7.03-2.877 9.285zm16.031 0c0 .782-.627 1.429-1.385 1.429H12.77C12.77 18.717 11.525 20 10 20c-1.525 0-2.77-1.283-2.77-2.857H2.386c-.758 0-1.385-.647-1.385-1.429C2.601 14.32 4.462 11.82 4.462 6.43c0-2.143 1.72-4.487 4.586-4.922a1.154 1.154 0 0 1-.086-.436C8.962.48 9.427 0 10 0s1.038.48 1.038 1.071c0 .157-.032.302-.086.436 2.867.435 4.586 2.779 4.586 4.922 0 5.39 1.861 7.89 3.462 9.285z" id="icon-notifications" /></defs><use fill="inherit" xlink: href="#icon-notifications" fill-rule="evenodd"/></svg>